<svg xmlns="http://www.w3.org/2000/svg" xmlns:xlink="http://www.w3.org/1999/xlink" width="500" zoomAndPan="magnify" viewBox="0 0 375 374.999991" height="500" preserveAspectRatio="xMidYMid meet" version="1.0"><defs><g/><clipPath id="ecc198bfbb"><path d="M 108.25 155 L 172.75 155 L 172.75 230.925781 L 108.25 230.925781 Z M 108.25 155 " clip-rule="nonzero"/></clipPath><clipPath id="73b6ba661f"><path d="M 120 144.675781 L 134 144.675781 L 134 161 L 120 161 Z M 120 144.675781 " clip-rule="nonzero"/></clipPath></defs><rect x="-37.5" width="450" fill="#ffffff" y="-37.499999" height="449.999989" fill-opacity="1"/><rect x="-37.5" width="450" fill="#ffffff" y="-37.499999" height="449.999989" fill-opacity="1"/><g clip-path="url(#ecc198bfbb)"><path fill="#264180" d="M 166.96875 155.832031 L 143.277344 155.832031 L 139.097656 164.769531 C 139.210938 169.410156 139.480469 174.015625 140.027344 178.5 L 140.316406 180.714844 C 140.402344 181.472656 140.558594 182.15625 140.671875 182.882812 L 141.0625 185.058594 L 141.535156 187.152344 C 141.828125 188.589844 142.246094 189.882812 142.648438 191.253906 L 142.796875 191.765625 L 142.96875 192.242188 L 143.234375 192.957031 L 150.199219 176.375 C 151.363281 173.644531 152.324219 170.8125 153.070312 167.871094 C 152.949219 169.785156 152.882812 172.015625 152.882812 174.585938 L 152.976562 178.984375 L 153.777344 200.710938 L 147.308594 200.710938 C 147.558594 201.027344 147.8125 201.335938 148.078125 201.636719 C 148.484375 202.105469 148.941406 202.480469 149.378906 202.929688 C 149.84375 203.3125 150.328125 203.671875 150.824219 204.042969 C 151.851562 204.667969 152.957031 205.28125 154.171875 205.613281 C 155.386719 206.027344 156.695312 206.183594 158.058594 206.261719 C 159.410156 206.292969 160.816406 206.152344 162.234375 205.902344 C 165.054688 205.328125 167.925781 204.261719 170.589844 202.644531 Z M 170.589844 202.644531 C 168.589844 205.171875 166.15625 207.367188 163.382812 209.179688 C 161.976562 210.050781 160.488281 210.84375 158.878906 211.445312 C 157.269531 212.011719 155.5625 212.484375 153.765625 212.617188 C 151.976562 212.828125 150.136719 212.671875 148.28125 212.363281 C 147.375 212.152344 146.453125 211.921875 145.550781 211.628906 C 144.679688 211.277344 143.757812 210.960938 142.910156 210.53125 C 139.472656 208.851562 136.421875 206.394531 133.863281 203.671875 C 131.28125 200.941406 129 197.953125 127.058594 194.867188 C 126.664062 194.25 126.269531 193.632812 125.882812 193.007812 L 108.234375 230.730469 L 127.351562 230.730469 L 133.242188 216.695312 L 154.34375 216.695312 L 154.816406 230.730469 L 172.765625 230.730469 L 170.589844 202.644531 " fill-opacity="1" fill-rule="nonzero"/></g><path fill="#f2541d" d="M 139.976562 200.710938 C 138.671875 199.21875 137.5 197.601562 136.421875 195.929688 C 134.386719 192.726562 132.769531 189.246094 131.496094 185.640625 C 131.226562 184.699219 130.921875 183.765625 130.644531 182.835938 C 130.386719 181.929688 130.148438 181.027344 129.972656 180.101562 C 129.78125 179.160156 129.519531 178.234375 129.378906 177.285156 L 128.96875 174.429688 C 128.902344 173.960938 128.8125 173.488281 128.773438 173.007812 L 128.671875 171.566406 L 128.464844 168.695312 C 128.398438 166.773438 128.441406 164.851562 128.429688 162.9375 L 125.207031 162.9375 C 125.210938 163.015625 125.21875 163.101562 125.226562 163.175781 C 125.359375 165.113281 125.460938 167.035156 125.652344 168.949219 L 126.070312 171.941406 L 126.28125 173.425781 C 126.355469 173.917969 126.480469 174.40625 126.578125 174.898438 L 127.21875 177.824219 C 127.429688 178.800781 127.769531 179.746094 128.03125 180.703125 C 128.429688 182.226562 129.003906 183.683594 129.566406 185.144531 C 129.714844 185.535156 129.863281 185.921875 130.007812 186.3125 C 131.578125 189.9375 133.480469 193.371094 135.785156 196.460938 C 138.078125 199.523438 140.726562 202.332031 143.808594 204.410156 C 142.421875 203.304688 141.144531 202.058594 139.976562 200.710938 " fill-opacity="1" fill-rule="nonzero"/><g clip-path="url(#73b6ba661f)"><path fill="#f2541d" d="M 127.847656 157.484375 L 128.011719 153.300781 L 133.363281 154.320312 L 132.058594 151.695312 L 128.160156 150.867188 L 128.382812 146.484375 L 126.820312 144.867188 L 125.253906 146.484375 L 125.476562 150.867188 L 121.578125 151.695312 L 120.277344 154.320312 L 125.621094 153.300781 L 125.789062 157.484375 L 124.230469 159.339844 L 124.140625 160.757812 L 126.820312 160.078125 L 129.496094 160.757812 L 129.40625 159.339844 L 127.847656 157.484375 " fill-opacity="1" fill-rule="nonzero"/></g><g fill="#f2541d" fill-opacity="1"><g transform="translate(66.387627, 197.994333)"><g><path d="M 45.171875 -31.53125 C 44.992188 -30.90625 44.804688 -30.269531 44.609375 -29.625 C 44.410156 -28.988281 44.332031 -28.273438 44.375 -27.484375 C 44.90625 -27.523438 45.390625 -27.578125 45.828125 -27.640625 C 46.273438 -27.710938 46.71875 -27.769531 47.15625 -27.8125 C 48.125 -27.90625 49.082031 -27.992188 50.03125 -28.078125 C 50.988281 -28.171875 51.929688 -28.238281 52.859375 -28.28125 C 53.253906 -28.28125 53.648438 -28.222656 54.046875 -28.109375 C 54.441406 -28.003906 54.816406 -27.882812 55.171875 -27.75 C 55.523438 -27.613281 55.8125 -27.414062 56.03125 -27.15625 C 56.25 -26.894531 56.316406 -26.5 56.234375 -25.96875 C 55.390625 -25.34375 54.460938 -25.226562 53.453125 -25.625 C 52.785156 -25.894531 52.128906 -25.984375 51.484375 -25.890625 C 50.847656 -25.804688 50.222656 -25.695312 49.609375 -25.5625 C 48.597656 -25.34375 47.5625 -25.109375 46.5 -24.859375 C 45.4375 -24.617188 44.351562 -24.367188 43.25 -24.109375 C 42.101562 -20.441406 41.039062 -16.753906 40.0625 -13.046875 C 39.09375 -9.335938 38.125 -5.648438 37.15625 -1.984375 C 36.226562 1.679688 35.3125 5.34375 34.40625 9 C 33.5 12.664062 32.582031 16.332031 31.65625 20 C 30.90625 20.039062 30.410156 20.003906 30.171875 19.890625 C 29.929688 19.785156 29.8125 19.535156 29.8125 19.140625 C 29.851562 18.210938 29.875 17.296875 29.875 16.390625 C 29.875 15.484375 29.960938 14.585938 30.140625 13.703125 C 30.890625 10.046875 31.671875 6.394531 32.484375 2.75 C 33.304688 -0.894531 34.113281 -4.523438 34.90625 -8.140625 C 35.394531 -10.222656 35.890625 -12.289062 36.390625 -14.34375 C 36.898438 -16.394531 37.398438 -18.457031 37.890625 -20.53125 C 37.972656 -20.800781 38.035156 -21.085938 38.078125 -21.390625 C 38.128906 -21.703125 38.195312 -22.054688 38.28125 -22.453125 C 38.019531 -22.453125 37.789062 -22.472656 37.59375 -22.515625 C 37.394531 -22.554688 37.226562 -22.554688 37.09375 -22.515625 C 33.644531 -21.546875 30.195312 -20.5625 26.75 -19.5625 C 23.3125 -18.570312 19.867188 -17.59375 16.421875 -16.625 C 16.296875 -16.582031 16.164062 -16.515625 16.03125 -16.421875 C 15.894531 -16.335938 15.757812 -16.273438 15.625 -16.234375 C 15.320312 -15.429688 14.945312 -14.242188 14.5 -12.671875 C 14.0625 -11.109375 13.585938 -9.332031 13.078125 -7.34375 C 12.566406 -5.363281 12.054688 -3.3125 11.546875 -1.1875 C 11.046875 0.925781 10.582031 2.929688 10.15625 4.828125 C 9.738281 6.734375 9.410156 8.367188 9.171875 9.734375 C 8.929688 11.109375 8.8125 12.054688 8.8125 12.578125 C 7.082031 13.328125 6.195312 12.929688 6.15625 11.390625 C 6.15625 10.503906 6.175781 9.628906 6.21875 8.765625 C 6.269531 7.910156 6.382812 7.0625 6.5625 6.21875 C 7.132812 3.175781 7.71875 0.125 8.3125 -2.9375 C 8.90625 -6.007812 9.488281 -9.09375 10.0625 -12.1875 C 10.113281 -12.5 10.160156 -12.84375 10.203125 -13.21875 C 10.242188 -13.59375 10.3125 -14 10.40625 -14.4375 C 9.519531 -14.351562 8.734375 -14.15625 8.046875 -13.84375 C 7.359375 -13.53125 6.664062 -13.265625 5.96875 -13.046875 C 5.4375 -12.867188 4.90625 -12.722656 4.375 -12.609375 C 3.84375 -12.503906 3.3125 -12.429688 2.78125 -12.390625 C 2.519531 -12.390625 2.253906 -12.476562 1.984375 -12.65625 C 1.722656 -12.832031 1.4375 -12.984375 1.125 -13.109375 C 1.65625 -14.210938 2.382812 -14.960938 3.3125 -15.359375 C 4.238281 -15.765625 5.144531 -16.164062 6.03125 -16.5625 C 6.863281 -17 7.734375 -17.382812 8.640625 -17.71875 C 9.546875 -18.050781 10.484375 -18.414062 11.453125 -18.8125 C 11.765625 -20.132812 12.085938 -21.445312 12.421875 -22.75 C 12.753906 -24.050781 13.070312 -25.363281 13.375 -26.6875 C 14.082031 -29.46875 14.789062 -32.25 15.5 -35.03125 C 16.207031 -37.8125 16.914062 -40.597656 17.625 -43.390625 C 17.84375 -44.140625 18.070312 -44.863281 18.3125 -45.5625 C 18.550781 -46.269531 18.804688 -46.976562 19.078125 -47.6875 C 19.253906 -48.125 19.472656 -48.519531 19.734375 -48.875 C 20.003906 -49.226562 20.378906 -49.492188 20.859375 -49.671875 C 21.171875 -49.765625 21.492188 -49.785156 21.828125 -49.734375 C 22.160156 -49.691406 22.742188 -49.492188 23.578125 -49.140625 C 23.535156 -47.953125 23.328125 -46.796875 22.953125 -45.671875 C 22.578125 -44.546875 22.253906 -43.382812 21.984375 -42.1875 C 21.722656 -41 21.445312 -39.816406 21.15625 -38.640625 C 20.875 -37.472656 20.578125 -36.316406 20.265625 -35.171875 C 19.691406 -32.785156 19.117188 -30.421875 18.546875 -28.078125 C 18.234375 -26.929688 17.929688 -25.757812 17.640625 -24.5625 C 17.359375 -23.375 17.039062 -22.140625 16.6875 -20.859375 C 17.039062 -20.859375 17.347656 -20.847656 17.609375 -20.828125 C 17.878906 -20.804688 18.125 -20.816406 18.34375 -20.859375 C 21.65625 -21.703125 24.96875 -22.550781 28.28125 -23.40625 C 31.59375 -24.269531 34.925781 -25.125 38.28125 -25.96875 C 38.414062 -26.007812 38.5625 -26.070312 38.71875 -26.15625 C 38.875 -26.25 39.0625 -26.335938 39.28125 -26.421875 C 39.40625 -26.828125 39.546875 -27.257812 39.703125 -27.71875 C 39.859375 -28.1875 40.003906 -28.660156 40.140625 -29.140625 C 41.328125 -33.648438 42.523438 -38.132812 43.734375 -42.59375 C 44.953125 -47.050781 46.203125 -51.507812 47.484375 -55.96875 C 47.929688 -57.507812 48.453125 -59.039062 49.046875 -60.5625 C 49.640625 -62.09375 50.25 -63.585938 50.875 -65.046875 C 51.21875 -65.878906 51.617188 -66.335938 52.078125 -66.421875 C 52.546875 -66.515625 53.3125 -66.34375 54.375 -65.90625 C 54.332031 -65.15625 54.222656 -64.425781 54.046875 -63.71875 C 53.867188 -63.007812 53.691406 -62.28125 53.515625 -61.53125 C 52.097656 -56.539062 50.691406 -51.539062 49.296875 -46.53125 C 47.910156 -41.519531 46.535156 -36.519531 45.171875 -31.53125 Z M 45.171875 -31.53125 "/></g></g></g><g fill="#f2541d" fill-opacity="1"><g transform="translate(118.249077, 197.994333)"><g><path d="M 22.453125 -17.28125 C 22.453125 -17.019531 22.472656 -16.78125 22.515625 -16.5625 C 22.554688 -16.34375 22.554688 -16.164062 22.515625 -16.03125 C 22.296875 -15.539062 22.0625 -15.039062 21.8125 -14.53125 C 21.570312 -14.03125 21.300781 -13.535156 21 -13.046875 C 19.582031 -10.753906 17.898438 -8.703125 15.953125 -6.890625 C 14.015625 -5.078125 11.898438 -3.460938 9.609375 -2.046875 C 7.617188 -0.765625 5.519531 -0.191406 3.3125 -0.328125 C 0 -0.503906 -1.457031 -2.207031 -1.0625 -5.4375 C -0.96875 -5.875 -0.878906 -6.269531 -0.796875 -6.625 C -0.347656 -8.476562 0.222656 -10.265625 0.921875 -11.984375 C 1.628906 -13.710938 2.445312 -15.367188 3.375 -16.953125 C 3.863281 -17.796875 4.347656 -18.269531 4.828125 -18.375 C 5.316406 -18.488281 6.113281 -18.347656 7.21875 -17.953125 C 7.3125 -17.460938 7.269531 -16.984375 7.09375 -16.515625 C 6.914062 -16.054688 6.738281 -15.582031 6.5625 -15.09375 C 6.113281 -13.726562 5.664062 -12.347656 5.21875 -10.953125 C 4.78125 -9.566406 4.363281 -8.164062 3.96875 -6.75 C 3.707031 -5.914062 3.597656 -5.125 3.640625 -4.375 C 3.640625 -4.0625 3.71875 -3.75 3.875 -3.4375 C 4.03125 -3.132812 4.148438 -2.828125 4.234375 -2.515625 C 5.117188 -2.554688 5.898438 -2.742188 6.578125 -3.078125 C 7.265625 -3.410156 7.941406 -3.773438 8.609375 -4.171875 C 10.898438 -5.585938 13.019531 -7.195312 14.96875 -9 C 16.914062 -10.8125 18.679688 -12.820312 20.265625 -15.03125 C 20.578125 -15.382812 20.863281 -15.789062 21.125 -16.25 C 21.394531 -16.71875 21.835938 -17.0625 22.453125 -17.28125 Z M 8.546875 -24.171875 C 7.972656 -23.734375 7.3125 -23.566406 6.5625 -23.671875 C 5.8125 -23.785156 5.234375 -24.128906 4.828125 -24.703125 C 4.523438 -25.191406 4.460938 -25.753906 4.640625 -26.390625 C 4.816406 -27.035156 5.191406 -27.507812 5.765625 -27.8125 C 6.515625 -28.257812 7.304688 -28.503906 8.140625 -28.546875 C 8.984375 -28.585938 9.847656 -28.5 10.734375 -28.28125 C 10.460938 -27.664062 10.21875 -27.101562 10 -26.59375 C 9.78125 -26.082031 9.535156 -25.585938 9.265625 -25.109375 C 9.140625 -24.796875 8.898438 -24.484375 8.546875 -24.171875 Z M 8.546875 -24.171875 "/></g></g></g><g fill="#f2541d" fill-opacity="1"><g transform="translate(137.523249, 197.994333)"><g><path d="M 26.03125 -15.234375 C 27.132812 -16.023438 28.328125 -16.113281 29.609375 -15.5 C 29.515625 -15.226562 29.4375 -14.984375 29.375 -14.765625 C 29.3125 -14.546875 29.210938 -14.347656 29.078125 -14.171875 C 28.765625 -13.773438 28.429688 -13.410156 28.078125 -13.078125 C 27.722656 -12.742188 27.375 -12.378906 27.03125 -11.984375 C 24.6875 -9.648438 22.34375 -7.289062 20 -4.90625 C 17.664062 -2.519531 15.328125 -0.15625 12.984375 2.1875 C 12.585938 2.582031 12.203125 2.988281 11.828125 3.40625 C 11.453125 3.832031 11.085938 4.242188 10.734375 4.640625 C 10.734375 4.941406 10.753906 5.210938 10.796875 5.453125 C 10.835938 5.703125 10.859375 5.957031 10.859375 6.21875 C 11.035156 7.320312 10.945312 8.359375 10.59375 9.328125 C 10.238281 10.304688 9.710938 11.210938 9.015625 12.046875 C 8.390625 12.804688 7.691406 13.472656 6.921875 14.046875 C 6.148438 14.617188 5.34375 15.125 4.5 15.5625 C 3.445312 16.1875 2.28125 16.429688 1 16.296875 C -0.550781 16.117188 -1.238281 15.320312 -1.0625 13.90625 C -1.019531 13.425781 -0.921875 12.941406 -0.765625 12.453125 C -0.609375 11.960938 -0.394531 11.5 -0.125 11.0625 C 0.488281 10.175781 1.125 9.289062 1.78125 8.40625 C 2.445312 7.53125 3.132812 6.648438 3.84375 5.765625 C 4.15625 5.367188 4.484375 4.984375 4.828125 4.609375 C 5.179688 4.234375 5.5625 3.820312 5.96875 3.375 C 5.519531 2.539062 5.0625 1.703125 4.59375 0.859375 C 4.132812 0.0234375 3.707031 -0.8125 3.3125 -1.65625 C 2.914062 -2.582031 2.539062 -3.507812 2.1875 -4.4375 C 1.832031 -5.363281 1.476562 -6.3125 1.125 -7.28125 C 0.8125 -8.164062 0.710938 -9.0625 0.828125 -9.96875 C 0.941406 -10.875 1.148438 -11.769531 1.453125 -12.65625 C 2.023438 -14.332031 3.050781 -15.863281 4.53125 -17.25 C 6.007812 -18.644531 7.6875 -19.726562 9.5625 -20.5 C 11.445312 -21.269531 13.269531 -21.566406 15.03125 -21.390625 C 15.78125 -21.347656 16.46875 -21.171875 17.09375 -20.859375 C 17.570312 -20.640625 17.910156 -20.296875 18.109375 -19.828125 C 18.304688 -19.367188 18.273438 -18.875 18.015625 -18.34375 C 17.484375 -17.238281 16.773438 -16.15625 15.890625 -15.09375 C 15.710938 -14.925781 15.445312 -14.828125 15.09375 -14.796875 C 14.75 -14.773438 14.332031 -14.703125 13.84375 -14.578125 C 14.019531 -15.453125 14.171875 -16.242188 14.296875 -16.953125 C 14.429688 -17.660156 14.566406 -18.410156 14.703125 -19.203125 C 14.304688 -19.203125 13.960938 -19.210938 13.671875 -19.234375 C 13.390625 -19.265625 13.113281 -19.234375 12.84375 -19.140625 C 9.976562 -17.898438 7.816406 -15.890625 6.359375 -13.109375 C 5.867188 -12.140625 5.546875 -11.144531 5.390625 -10.125 C 5.242188 -9.113281 5.320312 -8.054688 5.625 -6.953125 C 5.976562 -5.671875 6.421875 -4.429688 6.953125 -3.234375 C 7.484375 -2.046875 8.144531 -0.859375 8.9375 0.328125 C 9.382812 -0.0664062 9.796875 -0.441406 10.171875 -0.796875 C 10.546875 -1.148438 10.910156 -1.503906 11.265625 -1.859375 C 13.117188 -3.617188 14.984375 -5.378906 16.859375 -7.140625 C 18.734375 -8.910156 20.617188 -10.660156 22.515625 -12.390625 C 23.046875 -12.921875 23.609375 -13.40625 24.203125 -13.84375 C 24.804688 -14.28125 25.414062 -14.742188 26.03125 -15.234375 Z M 6.890625 11.328125 C 7.109375 10.929688 7.304688 10.5 7.484375 10.03125 C 7.660156 9.570312 7.617188 9.007812 7.359375 8.34375 C 6.429688 9.226562 5.613281 10.125 4.90625 11.03125 C 4.195312 11.9375 3.617188 12.941406 3.171875 14.046875 C 4.054688 13.910156 4.796875 13.597656 5.390625 13.109375 C 5.992188 12.628906 6.492188 12.035156 6.890625 11.328125 Z M 6.890625 11.328125 "/></g></g></g><g fill="#264180" fill-opacity="1"><g transform="translate(175.208811, 229.616733)"><g><path d="M 15.125 -25.203125 C 17.5 -25.203125 19.632812 -24.84375 21.53125 -24.125 C 23.425781 -23.40625 24.929688 -22.34375 26.046875 -20.9375 C 27.171875 -19.539062 27.734375 -17.832031 27.734375 -15.8125 L 20.125 -15.8125 C 20.125 -16.84375 19.664062 -17.675781 18.75 -18.3125 C 17.84375 -18.945312 16.742188 -19.265625 15.453125 -19.265625 C 13.578125 -19.265625 12.160156 -18.765625 11.203125 -17.765625 C 10.242188 -16.773438 9.765625 -15.367188 9.765625 -13.546875 L 9.765625 -11.234375 C 9.765625 -9.410156 10.242188 -8 11.203125 -7 C 12.160156 -6.007812 13.578125 -5.515625 15.453125 -5.515625 C 16.742188 -5.515625 17.84375 -5.816406 18.75 -6.421875 C 19.664062 -7.035156 20.125 -7.820312 20.125 -8.78125 L 14.515625 -8.78125 L 14.515625 -13.828125 L 27.734375 -13.828125 L 27.734375 0 L 23.625 0 L 22.828125 -2.453125 C 20.578125 -0.523438 17.625 0.4375 13.96875 0.4375 C 9.863281 0.4375 6.78125 -0.632812 4.71875 -2.78125 C 2.65625 -4.9375 1.625 -8.140625 1.625 -12.390625 C 1.625 -16.585938 2.789062 -19.769531 5.125 -21.9375 C 7.46875 -24.113281 10.800781 -25.203125 15.125 -25.203125 Z M 15.125 -25.203125 "/></g></g></g><g fill="#264180" fill-opacity="1"><g transform="translate(205.206554, 229.616733)"><g><path d="M 2.671875 -24.78125 L 24.09375 -24.78125 L 24.09375 -18.84375 L 10.625 -18.84375 L 10.625 -15.421875 L 22.15625 -15.421875 L 22.15625 -9.71875 L 10.625 -9.71875 L 10.625 -5.9375 L 24.34375 -5.9375 L 24.34375 0 L 2.671875 0 Z M 2.671875 -24.78125 "/></g></g></g><g fill="#264180" fill-opacity="1"><g transform="translate(231.207003, 229.616733)"><g><path d="M 20.390625 0 L 9.96875 -12.03125 L 9.96875 0 L 2.671875 0 L 2.671875 -24.78125 L 9.609375 -24.78125 L 20.03125 -12.5625 L 20.03125 -24.78125 L 27.328125 -24.78125 L 27.328125 0 Z M 20.390625 0 "/></g></g></g><g fill="#264180" fill-opacity="1"><g transform="translate(261.204746, 229.616733)"><g><path d="M 14.484375 -25.203125 C 18.148438 -25.203125 21.050781 -24.285156 23.1875 -22.453125 C 25.332031 -20.617188 26.40625 -18 26.40625 -14.59375 L 18.796875 -14.59375 C 18.796875 -16.03125 18.414062 -17.164062 17.65625 -18 C 16.90625 -18.84375 15.832031 -19.265625 14.4375 -19.265625 C 12.832031 -19.265625 11.648438 -18.757812 10.890625 -17.75 C 10.140625 -16.75 9.765625 -15.347656 9.765625 -13.546875 L 9.765625 -11.234375 C 9.765625 -9.460938 10.140625 -8.066406 10.890625 -7.046875 C 11.648438 -6.023438 12.8125 -5.515625 14.375 -5.515625 C 15.90625 -5.515625 17.066406 -5.910156 17.859375 -6.703125 C 18.648438 -7.492188 19.046875 -8.609375 19.046875 -10.046875 L 26.40625 -10.046875 C 26.40625 -6.660156 25.363281 -4.066406 23.28125 -2.265625 C 21.207031 -0.460938 18.273438 0.4375 14.484375 0.4375 C 10.253906 0.4375 7.050781 -0.640625 4.875 -2.796875 C 2.707031 -4.960938 1.625 -8.160156 1.625 -12.390625 C 1.625 -16.617188 2.707031 -19.8125 4.875 -21.96875 C 7.050781 -24.125 10.253906 -25.203125 14.484375 -25.203125 Z M 14.484375 -25.203125 "/></g></g></g><g fill="#264180" fill-opacity="1"><g transform="translate(289.221849, 229.616733)"><g><path d="M 18.046875 0 L 10.078125 0 L 10.078125 -9.609375 L 0.25 -24.78125 L 9.40625 -24.78125 L 14.15625 -16.53125 L 14.296875 -16.53125 L 19.046875 -24.78125 L 27.734375 -24.78125 L 18.046875 -9.609375 Z M 18.046875 0 "/></g></g></g><g fill="#f2541d" fill-opacity="1"><g transform="translate(175.958811, 193.373366)"><g><path d="M 34.765625 -42.453125 C 35.035156 -42.453125 35.289062 -42.375 35.53125 -42.21875 C 35.78125 -42.070312 36.035156 -41.929688 36.296875 -41.796875 C 32.015625 -41.484375 27.765625 -41.117188 23.546875 -40.703125 C 19.328125 -40.285156 15.078125 -39.875 10.796875 -39.46875 C 10.660156 -39.207031 10.523438 -38.941406 10.390625 -38.671875 C 10.265625 -38.410156 10.15625 -38.148438 10.0625 -37.890625 C 8.082031 -29.941406 6.019531 -22.023438 3.875 -14.140625 C 1.726562 -6.253906 -0.179688 1.660156 -1.859375 9.609375 C -2.035156 10.535156 -2.210938 11.4375 -2.390625 12.3125 C -2.566406 13.195312 -2.742188 14.082031 -2.921875 14.96875 C -3.003906 15.40625 -3.097656 15.832031 -3.203125 16.25 C -3.316406 16.675781 -3.441406 17.085938 -3.578125 17.484375 C -3.972656 17.523438 -4.257812 17.445312 -4.4375 17.25 C -4.613281 17.050781 -4.703125 16.84375 -4.703125 16.625 C -4.742188 16.09375 -4.765625 15.582031 -4.765625 15.09375 C -4.765625 14.613281 -4.742188 14.109375 -4.703125 13.578125 C -4.347656 10.046875 -3.835938 6.515625 -3.171875 2.984375 C -2.515625 -0.546875 -1.832031 -4.054688 -1.125 -7.546875 C -0.15625 -12.359375 0.898438 -17.140625 2.046875 -21.890625 C 3.203125 -26.640625 4.394531 -31.375 5.625 -36.09375 C 5.71875 -36.488281 5.804688 -36.894531 5.890625 -37.3125 C 5.984375 -37.738281 6.070312 -38.195312 6.15625 -38.6875 C 5.851562 -38.726562 5.554688 -38.769531 5.265625 -38.8125 C 4.972656 -38.851562 4.695312 -38.851562 4.4375 -38.8125 C 2.320312 -38.59375 0.21875 -38.347656 -1.875 -38.078125 C -3.976562 -37.816406 -6.066406 -37.554688 -8.140625 -37.296875 C -8.628906 -37.203125 -8.972656 -37.1875 -9.171875 -37.25 C -9.367188 -37.320312 -9.863281 -37.578125 -10.65625 -38.015625 C -10.3125 -38.585938 -9.835938 -38.941406 -9.234375 -39.078125 C -8.640625 -39.210938 -8.054688 -39.34375 -7.484375 -39.46875 C -6.023438 -39.738281 -4.546875 -39.972656 -3.046875 -40.171875 C -1.546875 -40.367188 -0.046875 -40.578125 1.453125 -40.796875 C 2.335938 -40.929688 3.242188 -41.050781 4.171875 -41.15625 C 5.097656 -41.269531 6.023438 -41.394531 6.953125 -41.53125 C 7.171875 -42.238281 7.390625 -42.957031 7.609375 -43.6875 C 7.835938 -44.414062 8.082031 -45.128906 8.34375 -45.828125 C 8.65625 -46.628906 8.960938 -47.4375 9.265625 -48.25 C 9.578125 -49.070312 9.929688 -49.832031 10.328125 -50.53125 C 10.679688 -51.195312 11.144531 -51.640625 11.71875 -51.859375 C 12.289062 -52.078125 12.976562 -52.007812 13.78125 -51.65625 C 13.78125 -50.820312 13.613281 -50.039062 13.28125 -49.3125 C 12.945312 -48.582031 12.671875 -47.84375 12.453125 -47.09375 C 12.273438 -46.300781 12.085938 -45.503906 11.890625 -44.703125 C 11.691406 -43.910156 11.457031 -43.070312 11.1875 -42.1875 C 11.632812 -42.144531 12.019531 -42.085938 12.34375 -42.015625 C 12.675781 -41.953125 13 -41.945312 13.3125 -42 C 15.78125 -42.082031 18.25 -42.203125 20.71875 -42.359375 C 23.195312 -42.515625 25.675781 -42.632812 28.15625 -42.71875 C 29.257812 -42.757812 30.359375 -42.75 31.453125 -42.6875 C 32.554688 -42.625 33.660156 -42.546875 34.765625 -42.453125 Z M 34.765625 -42.453125 "/></g></g></g><g fill="#f2541d" fill-opacity="1"><g transform="translate(186.887471, 193.373366)"><g><path d="M 15.765625 -6.828125 C 16.160156 -6.953125 16.4375 -7.003906 16.59375 -6.984375 C 16.75 -6.960938 17.066406 -6.820312 17.546875 -6.5625 C 17.015625 -5.988281 16.53125 -5.566406 16.09375 -5.296875 C 15.65625 -5.035156 15.0625 -4.859375 14.3125 -4.765625 C 13.5625 -4.679688 12.457031 -4.613281 11 -4.5625 C 10.375 -3.988281 9.785156 -3.4375 9.234375 -2.90625 C 8.679688 -2.382812 8.140625 -1.859375 7.609375 -1.328125 C 6.953125 -0.660156 6.269531 -0.0859375 5.5625 0.390625 C 4.851562 0.878906 4.101562 1.191406 3.3125 1.328125 C 2.78125 1.410156 2.25 1.441406 1.71875 1.421875 C 1.1875 1.398438 0.679688 1.320312 0.203125 1.1875 C -1.472656 0.65625 -2.113281 -0.84375 -1.71875 -3.3125 C -1.582031 -4.195312 -1.359375 -5.023438 -1.046875 -5.796875 C -0.742188 -6.566406 -0.394531 -7.304688 0 -8.015625 C 0.3125 -8.585938 0.640625 -9.160156 0.984375 -9.734375 C 1.335938 -10.304688 1.71875 -10.90625 2.125 -11.53125 C 2.070312 -12.8125 2.289062 -13.9375 2.78125 -14.90625 C 3.269531 -15.875 3.890625 -16.78125 4.640625 -17.625 C 5.390625 -18.414062 6.160156 -19.097656 6.953125 -19.671875 C 7.742188 -20.242188 8.601562 -20.640625 9.53125 -20.859375 C 10.238281 -20.992188 10.835938 -21.039062 11.328125 -21 C 13.535156 -20.6875 14.59375 -19.03125 14.5 -16.03125 C 14.457031 -14.832031 14.289062 -13.679688 14 -12.578125 C 13.71875 -11.472656 13.359375 -10.394531 12.921875 -9.34375 C 12.785156 -8.894531 12.628906 -8.4375 12.453125 -7.96875 C 12.273438 -7.507812 12.078125 -7.039062 11.859375 -6.5625 C 12.566406 -6.289062 13.238281 -6.207031 13.875 -6.3125 C 14.519531 -6.425781 15.148438 -6.597656 15.765625 -6.828125 Z M 2.125 -0.203125 C 2.695312 -0.285156 3.359375 -0.59375 4.109375 -1.125 C 4.859375 -1.65625 5.570312 -2.304688 6.25 -3.078125 C 6.9375 -3.847656 7.476562 -4.632812 7.875 -5.4375 C 7.476562 -5.695312 7.082031 -5.945312 6.6875 -6.1875 C 6.289062 -6.4375 5.914062 -6.710938 5.5625 -7.015625 C 5.164062 -7.285156 4.789062 -7.597656 4.4375 -7.953125 C 4.082031 -8.304688 3.6875 -8.660156 3.25 -9.015625 C 2.675781 -8.253906 2.234375 -7.453125 1.921875 -6.609375 C 1.609375 -5.773438 1.320312 -4.921875 1.0625 -4.046875 C 0.96875 -3.640625 0.910156 -3.203125 0.890625 -2.734375 C 0.867188 -2.273438 0.859375 -1.828125 0.859375 -1.390625 C 0.898438 -0.460938 1.320312 -0.0664062 2.125 -0.203125 Z M 9.34375 -7.421875 C 10.175781 -8.828125 10.820312 -10.289062 11.28125 -11.8125 C 11.75 -13.34375 11.960938 -14.96875 11.921875 -16.6875 C 11.921875 -17.175781 11.863281 -17.648438 11.75 -18.109375 C 11.644531 -18.578125 11.367188 -18.941406 10.921875 -19.203125 C 9.992188 -18.804688 9.175781 -18.210938 8.46875 -17.421875 C 7.769531 -16.628906 7.132812 -15.679688 6.5625 -14.578125 C 6.332031 -14.085938 6.195312 -13.585938 6.15625 -13.078125 C 6.113281 -12.566406 6.160156 -12.023438 6.296875 -11.453125 C 6.554688 -10.441406 6.941406 -9.613281 7.453125 -8.96875 C 7.960938 -8.332031 8.59375 -7.816406 9.34375 -7.421875 Z M 9.34375 -7.421875 "/></g></g></g><g fill="#f2541d" fill-opacity="1"><g transform="translate(202.651226, 193.373366)"><g><path d="M 19.40625 -18.75 C 19.84375 -16.894531 19.800781 -15.101562 19.28125 -13.375 C 19.226562 -13.25 19.113281 -13.082031 18.9375 -12.875 C 18.757812 -12.675781 18.628906 -12.601562 18.546875 -12.65625 C 18.015625 -12.738281 17.617188 -12.976562 17.359375 -13.375 C 17.222656 -13.59375 17.117188 -13.859375 17.046875 -14.171875 C 16.984375 -14.484375 16.910156 -14.789062 16.828125 -15.09375 C 16.691406 -15.445312 16.554688 -15.820312 16.421875 -16.21875 C 16.296875 -16.625 16.144531 -17.066406 15.96875 -17.546875 C 15.65625 -17.242188 15.351562 -16.976562 15.0625 -16.75 C 14.78125 -16.53125 14.53125 -16.289062 14.3125 -16.03125 C 13.382812 -14.832031 12.457031 -13.632812 11.53125 -12.4375 C 10.601562 -11.25 9.675781 -10.039062 8.75 -8.8125 C 8.039062 -7.882812 7.34375 -6.921875 6.65625 -5.921875 C 5.96875 -4.929688 5.25 -3.953125 4.5 -2.984375 C 4.144531 -2.492188 3.757812 -2.039062 3.34375 -1.625 C 2.925781 -1.207031 2.492188 -0.773438 2.046875 -0.328125 C 1.347656 0.378906 0.421875 0.707031 -0.734375 0.65625 C -2.234375 0.65625 -2.828125 -0.046875 -2.515625 -1.453125 C -2.335938 -2.296875 -2.050781 -3.160156 -1.65625 -4.046875 C -0.632812 -6.472656 0.378906 -8.890625 1.390625 -11.296875 C 2.410156 -13.703125 3.445312 -16.097656 4.5 -18.484375 C 4.632812 -18.835938 4.78125 -19.164062 4.9375 -19.46875 C 5.09375 -19.78125 5.257812 -20.066406 5.4375 -20.328125 C 5.957031 -21.253906 6.835938 -21.476562 8.078125 -21 C 7.992188 -19.40625 7.640625 -17.867188 7.015625 -16.390625 C 6.398438 -14.910156 6.050781 -13.265625 5.96875 -11.453125 C 6.363281 -11.898438 6.691406 -12.273438 6.953125 -12.578125 C 7.222656 -12.890625 7.46875 -13.15625 7.6875 -13.375 C 8.519531 -14.394531 9.351562 -15.410156 10.1875 -16.421875 C 11.03125 -17.441406 11.875 -18.4375 12.71875 -19.40625 C 13.601562 -20.46875 14.726562 -21.039062 16.09375 -21.125 C 17.90625 -21.300781 19.007812 -20.507812 19.40625 -18.75 Z M 19.40625 -18.75 "/></g></g></g><g fill="#f2541d" fill-opacity="1"><g transform="translate(225.833223, 193.373366)"><g><path d="M 22.453125 -17.28125 C 22.453125 -17.019531 22.472656 -16.78125 22.515625 -16.5625 C 22.554688 -16.34375 22.554688 -16.164062 22.515625 -16.03125 C 22.296875 -15.539062 22.0625 -15.039062 21.8125 -14.53125 C 21.570312 -14.03125 21.300781 -13.535156 21 -13.046875 C 19.582031 -10.753906 17.898438 -8.703125 15.953125 -6.890625 C 14.015625 -5.078125 11.898438 -3.460938 9.609375 -2.046875 C 7.617188 -0.765625 5.519531 -0.191406 3.3125 -0.328125 C 0 -0.503906 -1.457031 -2.207031 -1.0625 -5.4375 C -0.96875 -5.875 -0.878906 -6.269531 -0.796875 -6.625 C -0.347656 -8.476562 0.222656 -10.265625 0.921875 -11.984375 C 1.628906 -13.710938 2.445312 -15.367188 3.375 -16.953125 C 3.863281 -17.796875 4.347656 -18.269531 4.828125 -18.375 C 5.316406 -18.488281 6.113281 -18.347656 7.21875 -17.953125 C 7.3125 -17.460938 7.269531 -16.984375 7.09375 -16.515625 C 6.914062 -16.054688 6.738281 -15.582031 6.5625 -15.09375 C 6.113281 -13.726562 5.664062 -12.347656 5.21875 -10.953125 C 4.78125 -9.566406 4.363281 -8.164062 3.96875 -6.75 C 3.707031 -5.914062 3.597656 -5.125 3.640625 -4.375 C 3.640625 -4.0625 3.71875 -3.75 3.875 -3.4375 C 4.03125 -3.132812 4.148438 -2.828125 4.234375 -2.515625 C 5.117188 -2.554688 5.898438 -2.742188 6.578125 -3.078125 C 7.265625 -3.410156 7.941406 -3.773438 8.609375 -4.171875 C 10.898438 -5.585938 13.019531 -7.195312 14.96875 -9 C 16.914062 -10.8125 18.679688 -12.820312 20.265625 -15.03125 C 20.578125 -15.382812 20.863281 -15.789062 21.125 -16.25 C 21.394531 -16.71875 21.835938 -17.0625 22.453125 -17.28125 Z M 8.546875 -24.171875 C 7.972656 -23.734375 7.3125 -23.566406 6.5625 -23.671875 C 5.8125 -23.785156 5.234375 -24.128906 4.828125 -24.703125 C 4.523438 -25.191406 4.460938 -25.753906 4.640625 -26.390625 C 4.816406 -27.035156 5.191406 -27.507812 5.765625 -27.8125 C 6.515625 -28.257812 7.304688 -28.503906 8.140625 -28.546875 C 8.984375 -28.585938 9.847656 -28.5 10.734375 -28.28125 C 10.460938 -27.664062 10.21875 -27.101562 10 -26.59375 C 9.78125 -26.082031 9.535156 -25.585938 9.265625 -25.109375 C 9.140625 -24.796875 8.898438 -24.484375 8.546875 -24.171875 Z M 8.546875 -24.171875 "/></g></g></g><g fill="#f2541d" fill-opacity="1"><g transform="translate(245.107396, 193.373366)"><g><path d="M 18.9375 -17.890625 C 19.25 -18.328125 19.582031 -18.785156 19.9375 -19.265625 C 20.289062 -19.753906 20.796875 -20.085938 21.453125 -20.265625 C 21.410156 -20.003906 21.390625 -19.757812 21.390625 -19.53125 C 21.390625 -19.3125 21.367188 -19.140625 21.328125 -19.015625 C 21.066406 -18.429688 20.800781 -17.84375 20.53125 -17.25 C 20.269531 -16.65625 19.960938 -16.09375 19.609375 -15.5625 C 17.703125 -12.46875 15.644531 -9.507812 13.4375 -6.6875 C 11.238281 -3.863281 8.96875 -1.101562 6.625 1.59375 C 5.738281 2.601562 4.765625 3.40625 3.703125 4 C 2.648438 4.601562 1.457031 4.816406 0.125 4.640625 C -0.925781 4.503906 -1.738281 4.113281 -2.3125 3.46875 C -2.882812 2.832031 -3.195312 1.894531 -3.25 0.65625 C -3.289062 -0.269531 -3.300781 -1.195312 -3.28125 -2.125 C -3.257812 -3.050781 -3.160156 -3.953125 -2.984375 -4.828125 C -2.492188 -7.566406 -1.726562 -10.160156 -0.6875 -12.609375 C 0.34375 -15.066406 1.546875 -17.421875 2.921875 -19.671875 C 3.441406 -20.460938 4.015625 -21.171875 4.640625 -21.796875 C 5.867188 -22.984375 7.28125 -23.289062 8.875 -22.71875 C 9.71875 -22.40625 10.113281 -21.765625 10.0625 -20.796875 C 10.0625 -20.179688 9.941406 -19.6875 9.703125 -19.3125 C 9.460938 -18.9375 9.117188 -18.75 8.671875 -18.75 C 8.054688 -18.789062 7.601562 -18.644531 7.3125 -18.3125 C 7.03125 -17.976562 6.78125 -17.570312 6.5625 -17.09375 C 5.675781 -15.1875 4.890625 -13.25 4.203125 -11.28125 C 3.515625 -9.320312 2.972656 -7.285156 2.578125 -5.171875 C 2.398438 -4.285156 2.28125 -3.378906 2.21875 -2.453125 C 2.15625 -1.523438 2.234375 -0.550781 2.453125 0.46875 C 3.160156 0.0703125 3.789062 -0.390625 4.34375 -0.921875 C 4.894531 -1.453125 5.4375 -2.003906 5.96875 -2.578125 C 8.257812 -4.960938 10.5 -7.425781 12.6875 -9.96875 C 14.875 -12.507812 16.957031 -15.148438 18.9375 -17.890625 Z M 18.9375 -17.890625 "/></g></g></g><g fill="#f2541d" fill-opacity="1"><g transform="translate(262.527008, 193.373366)"><g><path d="M 21.65625 -12.3125 C 21.476562 -11.125 21.253906 -9.929688 20.984375 -8.734375 C 20.722656 -7.546875 20.53125 -6.359375 20.40625 -5.171875 C 20.269531 -3.890625 20.175781 -2.582031 20.125 -1.25 C 20.082031 0.0703125 20.039062 1.375 20 2.65625 C 20 3.3125 20.117188 3.9375 20.359375 4.53125 C 20.609375 5.132812 21.039062 5.632812 21.65625 6.03125 C 20.25 6.070312 19.242188 5.894531 18.640625 5.5 C 18.046875 5.101562 17.617188 4.265625 17.359375 2.984375 C 16.785156 0.203125 16.628906 -2.515625 16.890625 -5.171875 C 17.023438 -6.273438 17.15625 -7.378906 17.28125 -8.484375 C 17.414062 -9.585938 17.53125 -10.691406 17.625 -11.796875 C 17.664062 -11.960938 17.660156 -12.15625 17.609375 -12.375 C 17.566406 -12.601562 17.546875 -12.894531 17.546875 -13.25 C 17.148438 -12.851562 16.796875 -12.507812 16.484375 -12.21875 C 16.179688 -11.9375 15.894531 -11.660156 15.625 -11.390625 C 14.695312 -10.378906 13.78125 -9.363281 12.875 -8.34375 C 11.976562 -7.332031 11.039062 -6.335938 10.0625 -5.359375 C 9.363281 -4.703125 8.632812 -4.070312 7.875 -3.46875 C 7.125 -2.875 6.351562 -2.3125 5.5625 -1.78125 C 4.988281 -1.34375 4.367188 -1.015625 3.703125 -0.796875 C 3.046875 -0.578125 2.363281 -0.46875 1.65625 -0.46875 C -0.238281 -0.550781 -1.164062 -1.5 -1.125 -3.3125 C -1.039062 -4.414062 -0.863281 -5.410156 -0.59375 -6.296875 C 0.332031 -8.898438 1.523438 -11.335938 2.984375 -13.609375 C 4.441406 -15.878906 6.1875 -17.96875 8.21875 -19.875 C 8.695312 -20.351562 9.242188 -20.78125 9.859375 -21.15625 C 10.484375 -21.53125 11.101562 -21.851562 11.71875 -22.125 C 12.164062 -22.34375 12.648438 -22.484375 13.171875 -22.546875 C 13.703125 -22.617188 14.210938 -22.628906 14.703125 -22.578125 C 15.804688 -22.535156 16.535156 -22.257812 16.890625 -21.75 C 17.242188 -21.25 17.375 -20.398438 17.28125 -19.203125 C 17.28125 -19.078125 17.289062 -18.9375 17.3125 -18.78125 C 17.34375 -18.625 17.378906 -18.4375 17.421875 -18.21875 C 17.734375 -18.476562 18 -18.71875 18.21875 -18.9375 C 18.4375 -19.164062 18.65625 -19.390625 18.875 -19.609375 C 19.445312 -20.140625 20.195312 -20.378906 21.125 -20.328125 C 22.320312 -20.242188 22.851562 -19.671875 22.71875 -18.609375 C 22.582031 -17.546875 22.425781 -16.492188 22.25 -15.453125 C 22.070312 -14.421875 21.875 -13.375 21.65625 -12.3125 Z M 2.515625 -2.71875 C 3.796875 -3.289062 5.175781 -4.21875 6.65625 -5.5 C 8.132812 -6.78125 9.554688 -8.234375 10.921875 -9.859375 C 12.296875 -11.492188 13.445312 -13.109375 14.375 -14.703125 C 13.925781 -15.191406 13.722656 -15.742188 13.765625 -16.359375 C 13.816406 -16.972656 13.875 -17.597656 13.9375 -18.234375 C 14.007812 -18.878906 13.847656 -19.46875 13.453125 -20 C 11.898438 -19.070312 10.316406 -17.613281 8.703125 -15.625 C 7.097656 -13.644531 5.609375 -11.304688 4.234375 -8.609375 C 3.753906 -7.722656 3.3125 -6.816406 2.90625 -5.890625 C 2.507812 -4.960938 2.378906 -3.90625 2.515625 -2.71875 Z M 2.515625 -2.71875 "/></g></g></g><g fill="#f2541d" fill-opacity="1"><g transform="translate(287.894735, 193.373366)"><g><path d="M 6.359375 -15.890625 C 5.648438 -13.554688 5.019531 -11.21875 4.46875 -8.875 C 3.914062 -6.53125 3.507812 -4.144531 3.25 -1.71875 C 3.15625 -0.75 3.117188 0.207031 3.140625 1.15625 C 3.160156 2.101562 3.304688 3.039062 3.578125 3.96875 C 3.929688 5.070312 4.414062 5.8125 5.03125 6.1875 C 5.65625 6.5625 6.539062 6.597656 7.6875 6.296875 C 8.21875 6.117188 8.734375 5.914062 9.234375 5.6875 C 9.742188 5.46875 10.242188 5.226562 10.734375 4.96875 C 12.015625 4.21875 13.191406 3.351562 14.265625 2.375 C 15.347656 1.40625 16.332031 0.328125 17.21875 -0.859375 C 17.488281 -1.210938 17.765625 -1.578125 18.046875 -1.953125 C 18.335938 -2.328125 18.632812 -2.671875 18.9375 -2.984375 C 19.507812 -3.597656 20.128906 -3.640625 20.796875 -3.109375 C 20.835938 -2.929688 20.859375 -2.820312 20.859375 -2.78125 C 19.535156 0.175781 17.769531 2.625 15.5625 4.5625 C 13.351562 6.507812 10.59375 7.789062 7.28125 8.40625 C 6.707031 8.5 6.109375 8.535156 5.484375 8.515625 C 4.867188 8.492188 4.273438 8.414062 3.703125 8.28125 C 0.304688 7.664062 -1.519531 5.703125 -1.78125 2.390625 C -1.832031 1.285156 -1.832031 0.171875 -1.78125 -0.953125 C -1.738281 -2.085938 -1.648438 -3.179688 -1.515625 -4.234375 C -1.171875 -7.015625 -0.601562 -9.726562 0.1875 -12.375 C 0.988281 -15.03125 1.851562 -17.679688 2.78125 -20.328125 C 5.125 -27.085938 7.617188 -33.789062 10.265625 -40.4375 C 12.910156 -47.082031 15.828125 -53.628906 19.015625 -60.078125 C 19.804688 -61.710938 20.707031 -63.28125 21.71875 -64.78125 C 22.070312 -65.351562 22.523438 -65.78125 23.078125 -66.0625 C 23.628906 -66.351562 24.304688 -66.34375 25.109375 -66.03125 C 25.054688 -65.851562 25.03125 -65.675781 25.03125 -65.5 C 25.03125 -65.320312 25.007812 -65.191406 24.96875 -65.109375 C 24.082031 -63.117188 23.175781 -61.140625 22.25 -59.171875 C 21.320312 -57.210938 20.460938 -55.21875 19.671875 -53.1875 C 17.242188 -47.050781 14.898438 -40.878906 12.640625 -34.671875 C 10.390625 -28.472656 8.296875 -22.210938 6.359375 -15.890625 Z M 6.359375 -15.890625 "/></g></g></g><g fill="#f2541d" fill-opacity="1"><g transform="translate(311.146302, 193.373366)"><g/></g></g></svg>